# xmcd
#
# Track frame offsets:
#	150
#	16336
#	30956
#	51098
#	70085
#	85742
#	101450
#	117314
#	137088
#	151236
#	162683
#	177976
#	196306
#	214175
#
# Disc length: 3049 seconds
#
# Revision: 0
# Processed by: cddbd v1.5.1PL2 Copyright (c) Steve Scherf et al.
# Submitted via: dBpowerAMP V4.0
#
DISCID=b60be70e
DTITLE=Leonardo - Tudo Seu (Disco3 ao vivo)
DYEAR=1900
DGENRE=Country
TTITLE0=Pense Em Mim - Piensa En Mi  - Pense Em Mim
TTITLE1=Não Aprendi A Dizer Adeus
TTITLE2=Temporal De Amor
TTITLE3=Eu juro  - I swear
TTITLE4=Entre Tapas E Beijos
TTITLE5=Cadê Você - Sonho por Sonho - Não olhe assim
TTITLE6=Cerveja
TTITLE7=Festa De Rodeio
TTITLE8=Nuvem De Lágrima
TTITLE9=Talismã
TTITLE10=Índia - India
TTITLE11=Desculpe Mas Eu Vou Chorar
TTITLE12=Distanciâ
TTITLE13=Boto Pra remexer
EXTD=
EXTT0=
EXTT1=
EXTT2=
EXTT3=
EXTT4=
EXTT5=
EXTT6=
EXTT7=
EXTT8=
EXTT9=
EXTT10=
EXTT11=
EXTT12=
EXTT13=
PLAYORDER=
